<svg xmlns="http://www.w3.org/2000/svg" width="100%" viewBox="0 0 146 43" fill="none" class="g-footer-brand-logo"><path d="M11.0106 7.93975L4.35999 0.0136719H0V19.6402H4.22987V6.49511L11.0237 14.5384C12.1169 13.2499 13.2361 11.9094 14.3815 10.5168C15.5398 9.12417 16.6722 7.78357 17.7785 6.46905V19.6402H22.0343V0.0136719H17.6482L11.0237 7.93975H11.0106Z" fill="white"></path><path d="M34.3467 0L22.9846 19.6266H27.8522L36.0906 5.3752L40.2034 12.4813H34.1123L32.0169 16.1646H42.3249L44.3291 19.6266H49.2357L37.8607 0H34.3467Z" fill="white"></path><path d="M68.5522 1.18497C68.1877 0.820553 67.7452 0.534259 67.2637 0.326019C66.7691 0.117779 66.2616 0.0136719 65.715 0.0136719H54.1577C53.598 0.0136719 53.0645 0.117779 52.5829 0.326019C52.0883 0.534259 51.6587 0.820553 51.3073 1.18497C50.9429 1.54939 50.6567 1.96594 50.4484 2.47352C50.2402 2.96809 50.1361 3.48864 50.1361 4.04829V7.91378C50.1361 8.47342 50.2402 9.00699 50.4484 9.48854C50.6567 9.98311 50.9429 10.4126 51.3073 10.777C51.6717 11.1414 52.0883 11.4278 52.5829 11.636C53.0775 11.8443 53.598 11.9484 54.1577 11.9484H65.4806V15.3844H54.3529V13.7835H50.123V15.6056C50.123 16.1652 50.2272 16.6989 50.4354 17.1804C50.6436 17.675 50.93 18.1045 51.2944 18.4559C51.6588 18.8203 52.0753 19.1066 52.5699 19.3148C53.0644 19.5231 53.585 19.6273 54.1446 19.6273H65.7019C66.2486 19.6273 66.7691 19.5231 67.2507 19.3148C67.7452 19.1066 68.1749 18.8203 68.5393 18.4559C68.9167 18.0915 69.2029 17.662 69.4112 17.1804C69.6194 16.6859 69.7235 16.1652 69.7235 15.6056V11.7402C69.7235 11.1675 69.6194 10.6469 69.4112 10.1653C69.2029 9.67078 68.9037 9.24129 68.5393 8.87687C68.1749 8.51245 67.7322 8.22608 67.2507 8.01784C66.7561 7.8096 66.2486 7.70549 65.7019 7.70549H54.3399V4.26952H65.4676V5.88344H69.7496V4.06131C69.7496 3.50167 69.6455 2.96803 69.4372 2.48647C69.229 1.9919 68.9296 1.56242 68.5652 1.198L68.5522 1.18497Z" fill="white"></path><path d="M90.6883 1.18497C90.3109 0.820553 89.8814 0.534259 89.3998 0.326019C88.9053 0.117779 88.3847 0.0136719 87.8381 0.0136719H76.2808C75.7212 0.0136719 75.1876 0.117779 74.693 0.326019C74.2115 0.534259 73.782 0.820553 73.4176 1.18497C73.0531 1.54939 72.7668 1.96594 72.5585 2.47352C72.3503 2.96809 72.2332 3.48864 72.2332 4.04829V7.91378C72.2332 8.47342 72.3373 9.00699 72.5585 9.48854C72.7668 9.98311 73.0531 10.4126 73.4176 10.777C73.782 11.1414 74.2115 11.4278 74.693 11.636C75.1876 11.8443 75.7081 11.9484 76.2808 11.9484H87.5907V15.3844H76.463V13.7835H72.2332V15.6056C72.2332 16.1652 72.3373 16.6989 72.5585 17.1804C72.7668 17.675 73.0531 18.1045 73.4176 18.4559C73.782 18.8203 74.2115 19.1066 74.693 19.3148C75.1876 19.5231 75.7081 19.6273 76.2808 19.6273H87.8381C88.3847 19.6273 88.9053 19.5231 89.3998 19.3148C89.8944 19.1066 90.3239 18.8203 90.6883 18.4559C91.0527 18.0915 91.3521 17.662 91.5604 17.1804C91.7686 16.6859 91.8727 16.1652 91.8727 15.6056V11.7402C91.8727 11.1675 91.7686 10.6469 91.5604 10.1653C91.3521 9.67078 91.0658 9.24129 90.6883 8.87687C90.3109 8.51245 89.8814 8.22608 89.3998 8.01784C88.9053 7.8096 88.3847 7.70549 87.8381 7.70549H76.4761V4.26952H87.6038V5.88344H91.8858V4.06131C91.8858 3.50167 91.7816 2.96803 91.5734 2.48647C91.3652 1.9919 91.0788 1.56242 90.7013 1.198L90.6883 1.18497Z" fill="white"></path><path d="M13.1451 37.4564L4.90668 23.2051H0L11.3751 42.8316H14.8891L26.2511 23.2051H21.3705L13.1451 37.4564Z" fill="#00A4E4"></path><path d="M31.928 23.2051H27.6721V42.8316H31.928V23.2051Z" fill="#00A4E4"></path><path d="M50.2487 36.3633C50.8084 36.3633 51.3419 36.2592 51.8235 36.0509C52.3181 35.8427 52.7475 35.5563 53.0989 35.1789C53.4634 34.8014 53.7497 34.3719 53.971 33.8904C54.1923 33.3958 54.2964 32.8882 54.2964 32.3416V27.2658C54.2964 26.7192 54.1923 26.1986 53.971 25.717C53.7497 25.2225 53.4634 24.793 53.0989 24.4285C52.7345 24.0511 52.3051 23.7647 51.8235 23.5565C51.3289 23.3482 50.8084 23.2441 50.2487 23.2441H34.6829V42.8447H38.9127V36.5455C38.9127 36.5455 38.9648 36.4153 38.9127 36.4153L44.5351 36.3893L49.9624 42.8447H55.5458C54.856 42.0248 50.7563 37.1963 50.0665 36.3893H50.2618L50.2487 36.3633ZM50.0274 32.1073H38.9127V27.448H50.0274V32.1073Z" fill="#00A4E4"></path><path d="M55.9492 27.4479H63.6411V42.8316H67.8969V27.4479H75.5758V23.2051H55.9492V27.4479Z" fill="#00A4E4"></path><path d="M92.6545 38.5758H81.5267V23.2051H77.2969V38.797C77.2969 39.3566 77.401 39.8903 77.6092 40.3718C77.8175 40.8664 78.1038 41.2959 78.4683 41.6473C78.8327 42.0117 79.2622 42.298 79.7567 42.5062C80.2513 42.7145 80.7718 42.8187 81.3315 42.8187H92.8888C93.4354 42.8187 93.956 42.7145 94.4375 42.5062C94.9321 42.298 95.3616 42.0117 95.739 41.6473C96.1034 41.2829 96.4028 40.8534 96.6111 40.3718C96.8193 39.8773 96.9234 39.3566 96.9234 38.797V23.2051H92.6414V38.5758H92.6545Z" fill="#00A4E4"></path><path d="M109.066 23.2051L97.7039 42.8316H102.584L110.81 28.5672L114.923 35.6864H108.832L106.736 39.3566H117.044L119.048 42.8316H123.955L112.58 23.2051H109.066Z" fill="#00A4E4"></path><path d="M129.588 38.5758V23.166H125.371V42.8316H144.998V38.5758H129.588Z" fill="#00A4E4"></path><path d="M143.14 23C143.497 23 143.854 23.0964 144.201 23.2796C144.548 23.4627 144.808 23.7327 145.001 24.0701C145.194 24.4171 145.29 24.7738 145.29 25.1498C145.29 25.5258 145.194 25.8729 145.011 26.2199C144.818 26.5573 144.557 26.8273 144.22 27.0104C143.883 27.2033 143.526 27.29 143.15 27.29C142.774 27.29 142.417 27.1936 142.08 27.0104C141.742 26.8176 141.472 26.5573 141.28 26.2199C141.087 25.8825 141 25.5258 141 25.1498C141 24.7738 141.096 24.4171 141.289 24.0701C141.482 23.723 141.752 23.4627 142.089 23.2796C142.436 23.0964 142.784 23 143.15 23H143.14ZM143.14 23.3567C142.841 23.3567 142.543 23.4338 142.263 23.5881C141.974 23.7423 141.752 23.964 141.588 24.2533C141.424 24.5425 141.347 24.8413 141.347 25.1498C141.347 25.4583 141.424 25.7572 141.588 26.0367C141.742 26.3163 141.964 26.5381 142.253 26.7019C142.543 26.8562 142.832 26.943 143.14 26.943C143.449 26.943 143.748 26.8658 144.027 26.7019C144.307 26.5381 144.529 26.326 144.692 26.0367C144.847 25.7572 144.933 25.4583 144.933 25.1498C144.933 24.8413 144.856 24.5425 144.692 24.2533C144.529 23.964 144.307 23.7423 144.017 23.5881C143.728 23.4338 143.439 23.3567 143.14 23.3567ZM142.196 26.3356V24.0219H142.986C143.256 24.0219 143.458 24.0411 143.574 24.0893C143.699 24.1279 143.796 24.2051 143.863 24.3111C143.931 24.4171 143.969 24.5328 143.969 24.6485C143.969 24.822 143.911 24.9667 143.786 25.092C143.67 25.2173 143.507 25.2848 143.304 25.304C143.381 25.3426 143.449 25.3812 143.497 25.4294C143.593 25.5161 143.709 25.6704 143.834 25.8922L144.114 26.3452H143.661L143.458 25.9789C143.294 25.6897 143.169 25.5162 143.073 25.439C143.005 25.3812 142.909 25.3619 142.774 25.3619H142.552V26.3452H142.176L142.196 26.3356ZM142.571 25.0341H143.025C143.237 25.0341 143.391 25.0052 143.468 24.9377C143.545 24.8702 143.584 24.7835 143.584 24.6774C143.584 24.61 143.564 24.5521 143.526 24.4943C143.487 24.4364 143.439 24.3979 143.372 24.3689C143.304 24.34 143.179 24.3303 142.996 24.3303H142.571V25.0245V25.0341Z" fill="#00A4E4"></path></svg>
