<svg preserveAspectRatio="xMidYMid meet" data-bbox="12.993 11.68 402.297 110.83" viewBox="12.993 11.68 402.297 110.83" xmlns="http://www.w3.org/2000/svg" data-type="color" role="presentation" aria-hidden="true" aria-label="">
  <g>
    <path d="M174.92 79.7c0 20.5-17.59 37.1-39.29 37.1a41 41 0 0 1-16-3.19 45 45 0 0 1-8.34 5.46 28.8 28.8 0 0 1-12.52 3.44 2.47 2.47 0 0 1-2.27-1.77 3.21 3.21 0 0 1 .52-3.1 2 2 0 0 0 .2-.25c.17-.22.43-.55.76-1a38 38 0 0 0 2.33-3.85 28.9 28.9 0 0 0 3.28-11.22 35.5 35.5 0 0 1-7.24-21.62c0-20.49 17.59-37.1 39.28-37.1s39.29 16.61 39.29 37.1" fill="#ffffff" data-color="1" />
    <path d="M230.16 90.52a10.54 10.54 0 0 0-4.1-8.92Q222 78.5 211.29 75a105 105 0 0 1-16.88-6.8q-16.95-9.16-16.95-24.68A24 24 0 0 1 182 29.17a29.73 29.73 0 0 1 13.06-9.88 49.1 49.1 0 0 1 19.11-3.55 44.8 44.8 0 0 1 19 3.86 30.27 30.27 0 0 1 13 10.9 28.53 28.53 0 0 1 4.62 16h-20.56q0-6.84-4.31-10.63t-12.1-3.79q-7.51 0-11.69 3.17a10 10 0 0 0-4.13 8.38c0 3.23 1.63 5.95 4.89 8.13s8.06 4.24 14.39 6.16q17.5 5.27 25.5 13a26 26 0 0 1 8 19.42q0 12.92-9.78 20.26t-26.36 7.4a50.85 50.85 0 0 1-20.91-4.2c-6.29-2.8-9.74-4.82-13-9.69a51 51 0 0 0 6-18.78H195q0 16.47 19.68 16.47 7.32 0 11.42-3a9.68 9.68 0 0 0 4.06-8.28" fill="#000000" data-color="2" />
    <path d="M283.69 50.74a24.67 24.67 0 0 1 19.76-9.44q24.06 0 24.4 28v47.38H308.1V69.81q0-6.36-2.74-9.4t-9.09-3q-8.68 0-12.58 6.7v52.57h-19.75v-105h19.75Z" fill="#000000" data-color="2" />
    <path d="M86.89 101.88a41.35 41.35 0 0 1-4.55-18.72 40.4 40.4 0 0 1 1.2-9.75A30 30 0 0 0 81.32 71q-8-7.78-25.5-13-9.51-3-14.39-6.24c-3.26-2.18-4.89-4.9-4.89-8.13a10 10 0 0 1 4.17-8.38q4.17-3.16 11.69-3.17 7.8 0 12.1 3.79t4.31 10.63h20.5a28.5 28.5 0 0 0-4.61-16 30.33 30.33 0 0 0-13-10.9 44.8 44.8 0 0 0-19-3.86 49.1 49.1 0 0 0-19.1 3.55 29.67 29.67 0 0 0-13.06 9.88A24 24 0 0 0 16 43.56q0 15.52 17 24.68A104.5 104.5 0 0 0 49.87 75q10.67 3.45 14.77 6.56a10.54 10.54 0 0 1 4.1 8.92 9.68 9.68 0 0 1-4.1 8.31q-4.11 3-11.42 3-19.68 0-19.69-16.47H13a29.54 29.54 0 0 0 4.95 17A33.1 33.1 0 0 0 32.3 113.8a50.9 50.9 0 0 0 20.92 4.2q16.55 0 26.32-7.35a23.8 23.8 0 0 0 7.35-8.77" fill="#ffffff" data-color="1" />
    <path d="M400.41 43.14v7.59l-.26-.27q-9.47-9.15-24.44-9.16a35.64 35.64 0 0 0-18.49 4.7A31 31 0 0 0 345 59.35 43.8 43.8 0 0 0 340.78 79v.89q0 17.64 9.54 27.89T375.85 118q15.22 0 24.56-9.32v9.46h14.88v-75Zm-13.35 53.42a13.11 13.11 0 0 1-11.21 5.52q-7.38 0-11.35-5.58t-4-16.13q0-11.84 4-17.49a12.88 12.88 0 0 1 11.21-5.65 13.13 13.13 0 0 1 11.35 5.68q4 5.69 4 16 .03 12.14-4 17.65" fill="#000000" data-color="2" />
  </g>
</svg>
